<svg xmlns="http://www.w3.org/2000/svg" width="120" height="120" viewBox="0 0 120 120" aria-label="Mosaic panel, bold">

<rect x="1" y="1" width="118" height="118" rx="6" fill="#8A7E69"></rect>
  <rect x="4.1" y="4.1" width="11" height="11" rx="1.2" fill="#3A342C" transform="rotate(-1.86 9.6 9.6)"></rect>
  <rect x="16.7" y="4.1" width="11" height="11" rx="1.2" fill="#3A342C" transform="rotate(-0.64 22.2 9.6)"></rect>
  <rect x="29.3" y="4.1" width="11" height="11" rx="1.2" fill="#3A342C" transform="rotate(-1.4 34.8 9.6)"></rect>
  <rect x="41.9" y="4.1" width="11" height="11" rx="1.2" fill="#3A342C" transform="rotate(0.64 47.4 9.6)"></rect>
  <rect x="54.5" y="4.1" width="11" height="11" rx="1.2" fill="#3A342C" transform="rotate(-0.47 60 9.6)"></rect>
  <rect x="67.1" y="4.1" width="11" height="11" rx="1.2" fill="#3A342C" transform="rotate(-0.8 72.6 9.6)"></rect>
  <rect x="79.7" y="4.1" width="11" height="11" rx="1.2" fill="#3A342C" transform="rotate(1.16 85.2 9.6)"></rect>
  <rect x="92.3" y="4.1" width="11" height="11" rx="1.2" fill="#3A342C" transform="rotate(-0.75 97.8 9.6)"></rect>
  <rect x="104.9" y="4.1" width="11" height="11" rx="1.2" fill="#3A342C" transform="rotate(1.5 110.4 9.6)"></rect>
  <rect x="4.1" y="16.7" width="11" height="11" rx="1.2" fill="#3A342C" transform="rotate(0.23 9.6 22.2)"></rect>
  <rect x="16.7" y="16.7" width="11" height="11" rx="1.2" fill="#D9A441" transform="rotate(-1.2 22.2 22.2)"></rect>
  <rect x="29.3" y="16.7" width="11" height="11" rx="1.2" fill="#F3EADA" transform="rotate(-0.15 34.8 22.2)"></rect>
  <rect x="41.9" y="16.7" width="11" height="11" rx="1.2" fill="#F3EADA" transform="rotate(0.3 47.4 22.2)"></rect>
  <rect x="54.5" y="16.7" width="11" height="11" rx="1.2" fill="#F3EADA" transform="rotate(-0.34 60 22.2)"></rect>
  <rect x="67.1" y="16.7" width="11" height="11" rx="1.2" fill="#F3EADA" transform="rotate(-0.81 72.6 22.2)"></rect>
  <rect x="79.7" y="16.7" width="11" height="11" rx="1.2" fill="#F3EADA" transform="rotate(1.36 85.2 22.2)"></rect>
  <rect x="92.3" y="16.7" width="11" height="11" rx="1.2" fill="#D9A441" transform="rotate(0.4 97.8 22.2)"></rect>
  <rect x="104.9" y="16.7" width="11" height="11" rx="1.2" fill="#3A342C" transform="rotate(-0.59 110.4 22.2)"></rect>
  <rect x="4.1" y="29.3" width="11" height="11" rx="1.2" fill="#3A342C" transform="rotate(0.87 9.6 34.8)"></rect>
  <rect x="16.7" y="29.3" width="11" height="11" rx="1.2" fill="#F3EADA" transform="rotate(0.35 22.2 34.8)"></rect>
  <rect x="29.3" y="29.3" width="11" height="11" rx="1.2" fill="#F3EADA" transform="rotate(-0.4 34.8 34.8)"></rect>
  <rect x="41.9" y="29.3" width="11" height="11" rx="1.2" fill="#F3EADA" transform="rotate(0.29 47.4 34.8)"></rect>
  <rect x="54.5" y="29.3" width="11" height="11" rx="1.2" fill="#C05B38" transform="rotate(-1.05 60 34.8)"></rect>
  <rect x="67.1" y="29.3" width="11" height="11" rx="1.2" fill="#F3EADA" transform="rotate(-1.66 72.6 34.8)"></rect>
  <rect x="79.7" y="29.3" width="11" height="11" rx="1.2" fill="#F3EADA" transform="rotate(0.37 85.2 34.8)"></rect>
  <rect x="92.3" y="29.3" width="11" height="11" rx="1.2" fill="#F3EADA" transform="rotate(0.1 97.8 34.8)"></rect>
  <rect x="104.9" y="29.3" width="11" height="11" rx="1.2" fill="#3A342C" transform="rotate(-0.18 110.4 34.8)"></rect>
  <rect x="4.1" y="41.9" width="11" height="11" rx="1.2" fill="#3A342C" transform="rotate(-0.82 9.6 47.4)"></rect>
  <rect x="16.7" y="41.9" width="11" height="11" rx="1.2" fill="#F3EADA" transform="rotate(-0.19 22.2 47.4)"></rect>
  <rect x="29.3" y="41.9" width="11" height="11" rx="1.2" fill="#F3EADA" transform="rotate(-1.68 34.8 47.4)"></rect>
  <rect x="41.9" y="41.9" width="11" height="11" rx="1.2" fill="#C05B38" transform="rotate(1.08 47.4 47.4)"></rect>
  <rect x="54.5" y="41.9" width="11" height="11" rx="1.2" fill="#7C8450" transform="rotate(-1.19 60 47.4)"></rect>
  <rect x="67.1" y="41.9" width="11" height="11" rx="1.2" fill="#C05B38" transform="rotate(-1.52 72.6 47.4)"></rect>
  <rect x="79.7" y="41.9" width="11" height="11" rx="1.2" fill="#F3EADA" transform="rotate(1.4 85.2 47.4)"></rect>
  <rect x="92.3" y="41.9" width="11" height="11" rx="1.2" fill="#F3EADA" transform="rotate(0.42 97.8 47.4)"></rect>
  <rect x="104.9" y="41.9" width="11" height="11" rx="1.2" fill="#3A342C" transform="rotate(0.47 110.4 47.4)"></rect>
  <rect x="4.1" y="54.5" width="11" height="11" rx="1.2" fill="#3A342C" transform="rotate(1.73 9.6 60)"></rect>
  <rect x="16.7" y="54.5" width="11" height="11" rx="1.2" fill="#F3EADA" transform="rotate(-1.01 22.2 60)"></rect>
  <rect x="29.3" y="54.5" width="11" height="11" rx="1.2" fill="#C05B38" transform="rotate(-0.08 34.8 60)"></rect>
  <rect x="41.9" y="54.5" width="11" height="11" rx="1.2" fill="#7C8450" transform="rotate(-0.43 47.4 60)"></rect>
  <rect x="54.5" y="54.5" width="11" height="11" rx="1.2" fill="#D9A441" transform="rotate(0.53 60 60)"></rect>
  <rect x="67.1" y="54.5" width="11" height="11" rx="1.2" fill="#7C8450" transform="rotate(0.72 72.6 60)"></rect>
  <rect x="79.7" y="54.5" width="11" height="11" rx="1.2" fill="#C05B38" transform="rotate(-1.07 85.2 60)"></rect>
  <rect x="92.3" y="54.5" width="11" height="11" rx="1.2" fill="#F3EADA" transform="rotate(-1.23 97.8 60)"></rect>
  <rect x="104.9" y="54.5" width="11" height="11" rx="1.2" fill="#3A342C" transform="rotate(0.47 110.4 60)"></rect>
  <rect x="4.1" y="67.1" width="11" height="11" rx="1.2" fill="#3A342C" transform="rotate(-2 9.6 72.6)"></rect>
  <rect x="16.7" y="67.1" width="11" height="11" rx="1.2" fill="#F3EADA" transform="rotate(-0.87 22.2 72.6)"></rect>
  <rect x="29.3" y="67.1" width="11" height="11" rx="1.2" fill="#F3EADA" transform="rotate(1.11 34.8 72.6)"></rect>
  <rect x="41.9" y="67.1" width="11" height="11" rx="1.2" fill="#C05B38" transform="rotate(1.07 47.4 72.6)"></rect>
  <rect x="54.5" y="67.1" width="11" height="11" rx="1.2" fill="#7C8450" transform="rotate(-0.27 60 72.6)"></rect>
  <rect x="67.1" y="67.1" width="11" height="11" rx="1.2" fill="#C05B38" transform="rotate(-0.53 72.6 72.6)"></rect>
  <rect x="79.7" y="67.1" width="11" height="11" rx="1.2" fill="#F3EADA" transform="rotate(0.04 85.2 72.6)"></rect>
  <rect x="92.3" y="67.1" width="11" height="11" rx="1.2" fill="#F3EADA" transform="rotate(-0.98 97.8 72.6)"></rect>
  <rect x="104.9" y="67.1" width="11" height="11" rx="1.2" fill="#3A342C" transform="rotate(-0.83 110.4 72.6)"></rect>
  <rect x="4.1" y="79.7" width="11" height="11" rx="1.2" fill="#3A342C" transform="rotate(1.37 9.6 85.2)"></rect>
  <rect x="16.7" y="79.7" width="11" height="11" rx="1.2" fill="#F3EADA" transform="rotate(-0.87 22.2 85.2)"></rect>
  <rect x="29.3" y="79.7" width="11" height="11" rx="1.2" fill="#F3EADA" transform="rotate(0.38 34.8 85.2)"></rect>
  <rect x="41.9" y="79.7" width="11" height="11" rx="1.2" fill="#F3EADA" transform="rotate(-1.76 47.4 85.2)"></rect>
  <rect x="54.5" y="79.7" width="11" height="11" rx="1.2" fill="#C05B38" transform="rotate(1.5 60 85.2)"></rect>
  <rect x="67.1" y="79.7" width="11" height="11" rx="1.2" fill="#F3EADA" transform="rotate(0.75 72.6 85.2)"></rect>
  <rect x="79.7" y="79.7" width="11" height="11" rx="1.2" fill="#F3EADA" transform="rotate(-0.21 85.2 85.2)"></rect>
  <rect x="92.3" y="79.7" width="11" height="11" rx="1.2" fill="#F3EADA" transform="rotate(-1.3 97.8 85.2)"></rect>
  <rect x="104.9" y="79.7" width="11" height="11" rx="1.2" fill="#3A342C" transform="rotate(1.31 110.4 85.2)"></rect>
  <rect x="4.1" y="92.3" width="11" height="11" rx="1.2" fill="#3A342C" transform="rotate(-0.85 9.6 97.8)"></rect>
  <rect x="16.7" y="92.3" width="11" height="11" rx="1.2" fill="#D9A441" transform="rotate(-1.11 22.2 97.8)"></rect>
  <rect x="29.3" y="92.3" width="11" height="11" rx="1.2" fill="#F3EADA" transform="rotate(-0.18 34.8 97.8)"></rect>
  <rect x="41.9" y="92.3" width="11" height="11" rx="1.2" fill="#F3EADA" transform="rotate(1.1 47.4 97.8)"></rect>
  <rect x="54.5" y="92.3" width="11" height="11" rx="1.2" fill="#F3EADA" transform="rotate(-0.54 60 97.8)"></rect>
  <rect x="67.1" y="92.3" width="11" height="11" rx="1.2" fill="#F3EADA" transform="rotate(-2 72.6 97.8)"></rect>
  <rect x="79.7" y="92.3" width="11" height="11" rx="1.2" fill="#F3EADA" transform="rotate(-0.32 85.2 97.8)"></rect>
  <rect x="92.3" y="92.3" width="11" height="11" rx="1.2" fill="#D9A441" transform="rotate(-1.57 97.8 97.8)"></rect>
  <rect x="104.9" y="92.3" width="11" height="11" rx="1.2" fill="#3A342C" transform="rotate(1.96 110.4 97.8)"></rect>
  <rect x="4.1" y="104.9" width="11" height="11" rx="1.2" fill="#3A342C" transform="rotate(-0.89 9.6 110.4)"></rect>
  <rect x="16.7" y="104.9" width="11" height="11" rx="1.2" fill="#3A342C" transform="rotate(0.3 22.2 110.4)"></rect>
  <rect x="29.3" y="104.9" width="11" height="11" rx="1.2" fill="#3A342C" transform="rotate(0.37 34.8 110.4)"></rect>
  <rect x="41.9" y="104.9" width="11" height="11" rx="1.2" fill="#3A342C" transform="rotate(1.59 47.4 110.4)"></rect>
  <rect x="54.5" y="104.9" width="11" height="11" rx="1.2" fill="#3A342C" transform="rotate(0.88 60 110.4)"></rect>
  <rect x="67.1" y="104.9" width="11" height="11" rx="1.2" fill="#3A342C" transform="rotate(1.9 72.6 110.4)"></rect>
  <rect x="79.7" y="104.9" width="11" height="11" rx="1.2" fill="#3A342C" transform="rotate(-0.97 85.2 110.4)"></rect>
  <rect x="92.3" y="104.9" width="11" height="11" rx="1.2" fill="#3A342C" transform="rotate(-1.09 97.8 110.4)"></rect>
  <rect x="104.9" y="104.9" width="11" height="11" rx="1.2" fill="#3A342C" transform="rotate(-0.02 110.4 110.4)"></rect>
</svg>